<svg id="Layer_1" data-name="Layer 1" xmlns="http://www.w3.org/2000/svg" viewBox="0 0 1316.94 371.93"><defs><style>.cls-1{fill:#94a2aa;}.cls-2{fill:#99258e;}.cls-3{fill:#fff;}</style></defs><title>KISS_Logo 2019</title><rect x="864.24" y="17.65" width="434.04" height="336.63"/><polygon class="cls-1" points="1190.97 89.59 1148.56 204.3 1106.36 89.59 1053.8 89.59 1053.8 278.06 1099.21 278.06 1099.21 197.86 1130.5 278.06 1166.65 278.06 1198.12 197.51 1198.12 278.06 1243.54 278.06 1243.54 89.59 1190.97 89.59"/><polygon class="cls-1" points="1035.73 131.09 961.71 131.09 961.71 162.6 1030.88 162.6 1030.88 204.09 961.71 204.09 961.71 278.06 916.3 278.06 916.3 89.6 1035.73 89.6 1035.73 131.09"/><rect class="cls-2" x="21.66" y="17.65" width="842.58" height="336.63"/><path class="cls-3" d="M728.53,154.18c-29.84-7-35.17-11.11-35.17-19.23v-.63c0-7.38,7.35-11.95,19.2-11.95,18.75,0,39.5,7.57,58.38,21.28l1.74,1.23,31.86-46.46L803,97.13c-24.09-20-53.19-29.67-88.91-29.67-50.58,0-84.54,29.15-84.54,72.51v.63c0,47.93,38.74,61,81.92,71.23,29.12,7,34.27,11.63,34.27,18.91v.63c0,11.21-13.92,12.9-22.22,12.9-24.06,0-46.85-8.72-67.73-25.93L654.15,217l-35.49,43.76,1.53,1.39c25.82,23.87,61.74,37,101.17,37,54.42,0,88.22-28.28,88.22-73.8v-.6c0-43.5-32.41-59.67-81.05-70.6"/><polygon class="cls-3" points="217.21 176.31 298.15 71.2 218.78 71.2 144.79 165.57 144.79 71.2 76.35 71.2 76.35 295.39 144.79 295.39 144.79 196.41 223.09 295.39 311.13 295.39 217.21 176.31"/><rect class="cls-3" x="335.39" y="71.2" width="67.76" height="224.19"/><path class="cls-3" d="M528.42,154.18c-29.84-7-35.17-11.11-35.17-19.23v-.63c0-7.38,7.36-11.95,19.18-11.95,18.77,0,39.52,7.57,58.41,21.28l1.73,1.23,31.86-46.46-1.55-1.29c-24.11-20-53.19-29.67-88.93-29.67-50.56,0-84.55,29.15-84.55,72.51v.63c0,47.93,38.77,61,82,71.23,29.13,7,34.27,11.63,34.27,18.91v.63c0,8.19-8.11,12.9-22.24,12.9-24.06,0-46.83-8.72-67.71-25.93L454,217l-35.48,43.76,1.52,1.39c25.79,23.87,61.75,37,101.17,37,54.42,0,88.2-28.28,88.2-73.8v-.6c0-43.5-32.39-59.67-81-70.6"/></svg>